<?xml version="1.0" encoding="UTF-8" standalone="no" ?>
<!DOCTYPE svg PUBLIC "-//W3C//DTD SVG 1.1//EN" "http://www.w3.org/Graphics/SVG/1.1/DTD/svg11.dtd">
<svg xmlns="http://www.w3.org/2000/svg" xmlns:xlink="http://www.w3.org/1999/xlink" version="1.1" width="1280" height="1024" viewBox="0 0 1280 1024" xml:space="preserve">
<desc>Created with Fabric.js 5.3.0</desc>
<defs>
</defs>
<g transform="matrix(1 0 0 1 640 512)" id="background-logo"  >
<rect style="stroke: none; stroke-width: 0; stroke-dasharray: none; stroke-linecap: butt; stroke-dashoffset: 0; stroke-linejoin: miter; stroke-miterlimit: 4; fill: rgb(14,30,5); fill-rule: nonzero; opacity: 1;"  paint-order="stroke"  x="-640" y="-512" rx="0" ry="0" width="1280" height="1024" />
</g>
<g transform="matrix(1.6302727079821149 0 0 1.6302727079821147 260.6732287449393 511.3259109311742)" id="logo-logo"  >
<g style=""  paint-order="stroke"   >
		<g transform="matrix(0.917930923744532 0 0 0.9179309237445321 0 0)"  >
<g style=""  paint-order="stroke"   >
		<g transform="matrix(1 0 0 1 0 0)"  >
<linearGradient id="SVGID_2_95197" gradientUnits="userSpaceOnUse" gradientTransform="matrix(1 0 0 1 -100 -100)"  x1="0" y1="0" x2="0" y2="200">
<stop offset="0%" style="stop-color:rgb(148,229,108);stop-opacity: 1"/>
<stop offset="100%" style="stop-color:rgb(96,212,37);stop-opacity: 1"/>
</linearGradient>
<polygon style="stroke: none; stroke-width: 1; stroke-dasharray: none; stroke-linecap: butt; stroke-dashoffset: 0; stroke-linejoin: miter; stroke-miterlimit: 4; fill: url(#SVGID_2_95197); fill-rule: nonzero; opacity: 1;"  paint-order="stroke"  points="100,100 0,100 0,95.12 95.12,95.12 95.12,-95.12 -95.12,-95.12 -95.12,0 -100,0 -100,-100 100,-100 100,100 " />
</g>
</g>
</g>
</g>
</g>
<g transform="matrix(1.9211538461538462 0 0 1.9211538461538462 804.3228970171102 495.4004786029361)" id="text-logo"  >
<g style=""  paint-order="stroke"   >
		<g transform="matrix(1 0 0 1 0 0)" id="text-logo-path-0"  >
<path style="stroke: rgb(255,255,255); stroke-width: 0; stroke-dasharray: none; stroke-linecap: butt; stroke-dashoffset: 0; stroke-linejoin: miter; stroke-miterlimit: 4; fill: rgb(129,224,82); fill-rule: nonzero; opacity: 1;"  paint-order="stroke"  transform=" translate(-173.23, 12.6)" d="M 3.6 -25.2 L 3.6 0 L 14.4 0 L 14.4 -2.16 L 6.12 -2.16 L 6.12 -11.52 L 12.24 -11.52 L 12.24 -13.68 L 6.12 -13.68 L 6.12 -23.04 L 14.04 -23.04 L 14.04 -25.2 Z M 62.32 -13.68 L 51.88 -13.68 L 51.88 -11.52 L 62.32 -11.52 Z M 91.04 -19.08 L 91.04 -15.48 L 93.56 -15.48 L 93.56 -19.8 C 93.56 -24.62 90.86 -25.56 87.44 -25.56 C 84.06 -25.56 81.32 -24.62 81.32 -19.8 L 81.32 -5.4 C 81.32 -0.58 84.06 0.36 87.44 0.36 C 90.86 0.36 93.56 -0.65 93.56 -5.4 L 93.56 -6.91 L 91.04 -6.91 L 91.04 -6.12 C 91.04 -2.84 89.64 -2.16 87.44 -2.16 C 85.25 -2.16 83.84 -2.84 83.84 -6.12 L 83.84 -19.08 C 83.84 -22.36 85.25 -23.04 87.44 -23.04 C 89.64 -23.04 91.04 -22.36 91.04 -19.08 Z M 111.85 -19.8 L 111.85 -5.4 C 111.85 -0.58 114.59 0.36 117.97 0.36 C 121.39 0.36 124.09 -0.65 124.09 -5.4 L 124.09 -19.8 C 124.09 -24.62 121.39 -25.56 117.97 -25.56 C 114.59 -25.56 111.85 -24.62 111.85 -19.8 Z M 114.37 -6.12 L 114.37 -19.08 C 114.37 -22.36 115.78 -23.04 117.97 -23.04 C 120.17 -23.04 121.57 -22.36 121.57 -19.08 L 121.57 -6.12 C 121.57 -2.84 120.17 -2.16 117.97 -2.16 C 115.78 -2.16 114.37 -2.84 114.37 -6.12 Z M 159.05 -25.2 L 155.45 -25.2 L 151.16 -9.79 L 146.88 -25.2 L 143.28 -25.2 L 143.28 0 L 145.8 0 L 145.8 -20.02 L 149.87 -5.4 L 152.46 -5.4 L 156.53 -20.02 L 156.53 0 L 159.05 0 Z M 194.54 -25.2 L 190.94 -25.2 L 186.66 -9.79 L 182.38 -25.2 L 178.78 -25.2 L 178.78 0 L 181.3 0 L 181.3 -20.02 L 185.36 -5.4 L 187.96 -5.4 L 192.02 -20.02 L 192.02 0 L 194.54 0 Z M 214.27 -25.2 L 214.27 0 L 225.07 0 L 225.07 -2.16 L 216.79 -2.16 L 216.79 -11.52 L 222.91 -11.52 L 222.91 -13.68 L 216.79 -13.68 L 216.79 -23.04 L 224.71 -23.04 L 224.71 -25.2 Z M 243 0 L 245.52 0 L 245.52 -9.36 L 248.04 -9.36 L 252.54 0 L 255.24 0 L 250.63 -9.65 C 252.72 -10.19 254.16 -11.66 254.16 -15.12 L 254.16 -19.44 C 254.16 -24.26 251.46 -25.2 248.04 -25.2 L 243 -25.2 Z M 245.52 -11.52 L 245.52 -23.04 L 248.04 -23.04 C 250.24 -23.04 251.64 -22.36 251.64 -19.08 L 251.64 -15.48 C 251.64 -12.2 250.24 -11.52 248.04 -11.52 Z M 272.81 -25.2 L 272.81 0 L 283.61 0 L 283.61 -2.16 L 275.33 -2.16 L 275.33 -11.52 L 281.45 -11.52 L 281.45 -13.68 L 275.33 -13.68 L 275.33 -23.04 L 283.25 -23.04 L 283.25 -25.2 Z M 310.72 -19.08 L 310.72 -15.48 L 313.24 -15.48 L 313.24 -19.8 C 313.24 -24.62 310.54 -25.56 307.12 -25.56 C 303.73 -25.56 301 -24.62 301 -19.8 L 301 -5.4 C 301 -0.58 303.73 0.36 307.12 0.36 C 310.54 0.36 313.24 -0.65 313.24 -5.4 L 313.24 -6.91 L 310.72 -6.91 L 310.72 -6.12 C 310.72 -2.84 309.31 -2.16 307.12 -2.16 C 304.92 -2.16 303.52 -2.84 303.52 -6.12 L 303.52 -19.08 C 303.52 -22.36 304.92 -23.04 307.12 -23.04 C 309.31 -23.04 310.72 -22.36 310.72 -19.08 Z M 332.06 -25.2 L 332.06 0 L 342.86 0 L 342.86 -2.16 L 334.58 -2.16 L 334.58 -11.52 L 340.7 -11.52 L 340.7 -13.68 L 334.58 -13.68 L 334.58 -23.04 L 342.5 -23.04 L 342.5 -25.2 Z" stroke-linecap="round" />
</g>
</g>
</g>
<g transform="matrix(1.9211538461538462 0 0 1.9211538461538462 260.48539644725855 514.2463359272515)" id="tagline-3a78d944-c0db-44d4-8ad5-60158c925687-logo"  >
<g style=""  paint-order="stroke"   >
		<g transform="matrix(1 0 0 1 0 0)" id="tagline-3a78d944-c0db-44d4-8ad5-60158c925687-logo-path-0"  >
<linearGradient id="SVGID_95198" gradientUnits="userSpaceOnUse" gradientTransform="matrix(1 0 0 1 2.759999999999998 -48.3)"  x1="-2.7255005264282204" y1="-12.360660000000024" x2="-2.7255005264282204" y2="65.63933999999998">
<stop offset="0%" style="stop-color:rgb(148,229,108);stop-opacity: 1"/>
<stop offset="100%" style="stop-color:rgb(96,212,37);stop-opacity: 1"/>
</linearGradient>
<path style="stroke: rgb(255,255,255); stroke-width: 0; stroke-dasharray: none; stroke-linecap: butt; stroke-dashoffset: 0; stroke-linejoin: miter; stroke-miterlimit: 4; fill: url(#SVGID_95198); fill-rule: nonzero; opacity: 1;"  paint-order="stroke"  transform=" translate(-16.525, 24.15)" d="M 2.76 0 L 7.59 0 L 10.35 -13.11 L 22.7 -13.11 L 25.46 0 L 30.29 0 L 20.15 -48.3 L 12.9 -48.3 Z M 11.25 -17.25 L 16.56 -42.57 L 21.87 -17.25 Z" stroke-linecap="round" />
</g>
</g>
</g>
<g transform="matrix(1.9211538461538462 0 0 1.9211538461538462 818.687530034585 545.2074329291572)" id="tagline-ee21041c-fd7a-4646-a088-df0a2334375e-logo"  >
<g style=""  paint-order="stroke"   >
		<g transform="matrix(1 0 0 1 0 0)" id="tagline-ee21041c-fd7a-4646-a088-df0a2334375e-logo-path-0"  >
<path style="stroke: none; stroke-width: 0; stroke-dasharray: none; stroke-linecap: butt; stroke-dashoffset: 0; stroke-linejoin: miter; stroke-miterlimit: 4; fill: rgb(255,255,255); fill-rule: nonzero; opacity: 1;"  paint-order="stroke"  transform=" translate(-185.095, 4.545)" d="M 3.75 0.15 C 5.16 0.15 6.3 -0.24 6.3 -2.25 L 6.3 -2.55 C 6.3 -4.96 2.25 -6.51 2.25 -7.95 C 2.25 -9.31 2.83 -9.6 3.75 -9.6 C 4.67 -9.6 5.25 -9.31 5.25 -7.95 L 5.25 -7.35 L 6.3 -7.35 L 6.3 -8.25 C 6.3 -10.26 5.17 -10.65 3.75 -10.65 C 2.34 -10.65 1.2 -10.26 1.2 -8.25 L 1.2 -7.95 C 1.2 -5.79 5.25 -4.25 5.25 -2.55 C 5.25 -1.19 4.67 -0.9 3.75 -0.9 C 2.83 -0.9 2.25 -1.19 2.25 -2.55 L 2.25 -3.33 L 1.2 -3.33 L 1.2 -2.25 C 1.2 -0.27 2.32 0.15 3.75 0.15 Z M 17.8 -10.5 L 17.8 0 L 18.86 0 L 18.86 -4.95 L 21.86 -4.95 L 21.86 0 L 22.91 0 L 22.91 -10.5 L 21.86 -10.5 L 21.86 -5.85 L 18.86 -5.85 L 18.86 -10.5 Z M 34.48 -8.25 L 34.48 -2.25 C 34.48 -0.24 35.63 0.15 37.04 0.15 C 38.46 0.15 39.59 -0.27 39.59 -2.25 L 39.59 -8.25 C 39.59 -10.26 38.46 -10.65 37.04 -10.65 C 35.63 -10.65 34.48 -10.26 34.48 -8.25 Z M 35.54 -2.55 L 35.54 -7.95 C 35.54 -9.31 36.12 -9.6 37.04 -9.6 C 37.95 -9.6 38.54 -9.31 38.54 -7.95 L 38.54 -2.55 C 38.54 -1.19 37.95 -0.9 37.04 -0.9 C 36.12 -0.9 35.54 -1.19 35.54 -2.55 Z M 51.02 0 L 52.06 0 L 52.06 -3.75 L 53.12 -3.75 C 54.54 -3.75 55.66 -4.17 55.66 -6.15 L 55.66 -8.1 C 55.66 -10.11 54.54 -10.5 53.12 -10.5 L 51.02 -10.5 Z M 52.06 -4.65 L 52.06 -9.6 L 53.12 -9.6 C 54.03 -9.6 54.62 -9.31 54.62 -7.95 L 54.62 -6.3 C 54.62 -4.93 54.03 -4.65 53.12 -4.65 Z M 80.93 0.15 C 82.34 0.15 83.48 -0.24 83.48 -2.25 L 83.48 -2.55 C 83.48 -4.96 79.43 -6.51 79.43 -7.95 C 79.43 -9.31 80.01 -9.6 80.93 -9.6 C 81.84 -9.6 82.43 -9.31 82.43 -7.95 L 82.43 -7.35 L 83.48 -7.35 L 83.48 -8.25 C 83.48 -10.26 82.35 -10.65 80.93 -10.65 C 79.52 -10.65 78.38 -10.26 78.38 -8.25 L 78.38 -7.95 C 78.38 -5.79 82.43 -4.25 82.43 -2.55 C 82.43 -1.19 81.84 -0.9 80.93 -0.9 C 80.01 -0.9 79.43 -1.19 79.43 -2.55 L 79.43 -3.33 L 78.38 -3.33 L 78.38 -2.25 C 78.38 -0.27 79.5 0.15 80.93 0.15 Z M 101.55 -10.5 L 100.05 -10.5 L 98.27 -4.08 L 96.48 -10.5 L 94.98 -10.5 L 94.98 0 L 96.03 0 L 96.03 -8.34 L 97.73 -2.25 L 98.81 -2.25 L 100.5 -8.34 L 100.5 0 L 101.55 0 Z M 112.46 0 L 113.51 0 L 114.11 -2.85 L 116.79 -2.85 L 117.39 0 L 118.44 0 L 116.24 -10.5 L 114.66 -10.5 Z M 114.3 -3.75 L 115.46 -9.25 L 116.61 -3.75 Z M 129.35 0 L 130.4 0 L 130.4 -3.9 L 131.45 -3.9 L 133.32 0 L 134.45 0 L 132.53 -4.02 C 133.4 -4.25 134 -4.86 134 -6.3 L 134 -8.1 C 134 -10.11 132.87 -10.5 131.45 -10.5 L 129.35 -10.5 Z M 130.4 -4.8 L 130.4 -9.6 L 131.45 -9.6 C 132.36 -9.6 132.95 -9.31 132.95 -7.95 L 132.95 -6.45 C 132.95 -5.08 132.36 -4.8 131.45 -4.8 Z M 149.25 -10.5 L 144.3 -10.5 L 144.3 -9.6 L 146.25 -9.6 L 146.25 0 L 147.3 0 L 147.3 -9.6 L 149.25 -9.6 Z M 160.01 -10.5 L 160.01 0 L 164.51 0 L 164.51 -0.9 L 161.06 -0.9 L 161.06 -4.8 L 163.61 -4.8 L 163.61 -5.7 L 161.06 -5.7 L 161.06 -9.6 L 164.36 -9.6 L 164.36 -10.5 Z M 175.56 0 L 176.61 0 L 176.61 -3.9 L 177.66 -3.9 L 179.54 0 L 180.66 0 L 178.74 -4.02 C 179.61 -4.25 180.21 -4.86 180.21 -6.3 L 180.21 -8.1 C 180.21 -10.11 179.09 -10.5 177.66 -10.5 L 175.56 -10.5 Z M 176.61 -4.8 L 176.61 -9.6 L 177.66 -9.6 C 178.58 -9.6 179.16 -9.31 179.16 -7.95 L 179.16 -6.45 C 179.16 -5.08 178.58 -4.8 177.66 -4.8 Z M 191.34 -1.5 L 191.34 0 L 191.82 0 L 191.48 1.41 L 191.99 1.56 L 192.69 0 L 192.69 -1.5 Z M 216.08 -10.5 L 216.08 0 L 219.83 0 L 219.83 -0.9 L 217.13 -0.9 L 217.13 -10.5 Z M 232.38 -10.5 L 229.98 -10.5 L 229.98 -9.6 L 230.66 -9.6 L 230.66 -0.9 L 229.98 -0.9 L 229.98 0 L 232.38 0 L 232.38 -0.9 L 231.71 -0.9 L 231.71 -9.6 L 232.38 -9.6 Z M 242.84 -10.5 L 245.04 0 L 246.62 0 L 248.82 -10.5 L 247.77 -10.5 L 245.84 -1.24 L 243.89 -10.5 Z M 259.73 -10.5 L 259.73 0 L 264.23 0 L 264.23 -0.9 L 260.78 -0.9 L 260.78 -4.8 L 263.33 -4.8 L 263.33 -5.7 L 260.78 -5.7 L 260.78 -9.6 L 264.08 -9.6 L 264.08 -10.5 Z M 287.09 0 L 289.34 0 C 290.76 0 291.89 -0.42 291.89 -2.4 L 291.89 -3.6 C 291.89 -4.75 291.51 -5.28 290.91 -5.5 C 291.42 -5.77 291.74 -6.3 291.74 -7.35 L 291.74 -8.1 C 291.74 -10.11 290.61 -10.5 289.19 -10.5 L 287.09 -10.5 Z M 288.14 -0.9 L 288.14 -5.1 L 289.34 -5.1 C 290.25 -5.1 290.84 -4.81 290.84 -3.3 L 290.84 -2.55 C 290.84 -1.19 290.25 -0.9 289.34 -0.9 Z M 288.14 -5.85 L 288.14 -9.6 L 289.19 -9.6 C 290.1 -9.6 290.69 -9.31 290.69 -7.95 L 290.69 -7.5 C 290.69 -6.13 290.1 -5.85 289.19 -5.85 Z M 303.47 -10.5 L 303.47 0 L 307.97 0 L 307.97 -0.9 L 304.52 -0.9 L 304.52 -4.8 L 307.07 -4.8 L 307.07 -5.7 L 304.52 -5.7 L 304.52 -9.6 L 307.82 -9.6 L 307.82 -10.5 Z M 322.92 -10.5 L 317.97 -10.5 L 317.97 -9.6 L 319.92 -9.6 L 319.92 0 L 320.97 0 L 320.97 -9.6 L 322.92 -9.6 Z M 337.58 -10.5 L 332.63 -10.5 L 332.63 -9.6 L 334.58 -9.6 L 334.58 0 L 335.63 0 L 335.63 -9.6 L 337.58 -9.6 Z M 348.33 -10.5 L 348.33 0 L 352.83 0 L 352.83 -0.9 L 349.38 -0.9 L 349.38 -4.8 L 351.93 -4.8 L 351.93 -5.7 L 349.38 -5.7 L 349.38 -9.6 L 352.68 -9.6 L 352.68 -10.5 Z M 363.89 0 L 364.94 0 L 364.94 -3.9 L 365.99 -3.9 L 367.86 0 L 368.99 0 L 367.07 -4.02 C 367.94 -4.25 368.54 -4.86 368.54 -6.3 L 368.54 -8.1 C 368.54 -10.11 367.41 -10.5 365.99 -10.5 L 363.89 -10.5 Z M 364.94 -4.8 L 364.94 -9.6 L 365.99 -9.6 C 366.9 -9.6 367.49 -9.31 367.49 -7.95 L 367.49 -6.45 C 367.49 -5.08 366.9 -4.8 365.99 -4.8 Z" stroke-linecap="round" />
</g>
</g>
</g>
</svg>